<svg width="32" height="32" viewBox="0 0 32 32" fill="none" xmlns="http://www.w3.org/2000/svg">
<rect x="1" y="1" width="30" height="30" rx="15" fill="white"/>
<rect x="1" y="1" width="30" height="30" rx="15" stroke="#FF471E" stroke-width="2"/>
<path d="M16 11.8496C17.8771 11.8496 19.3988 10.3163 19.3988 8.42482C19.3988 6.53334 17.8771 5 16 5C14.1229 5 12.6011 6.53334 12.6011 8.42482C12.6011 10.3163 14.1229 11.8496 16 11.8496Z" fill="#FF471E"/>
<path d="M19.0508 23.5086L19.0201 12.6855H12.9287L12.9595 23.7137H15.9181V27L19.0508 23.5086ZM13.6761 22.9856V18.5918H15.9232V21.8526L18.3341 19.1455V23.201L16.6398 25.1133V22.9908H13.6761V22.9856Z" fill="#FF471E"/>
</svg>
